<svg width="102" height="16" viewBox="0 0 102 16" fill="none" xmlns="http://www.w3.org/2000/svg">
<path d="M4.56098 4.48674V6.36035H10.8058V9.7434H4.56098V15.2397H0.657959V0.907227H11.2379V4.49153H4.56098V4.48674Z" fill="white"/>
<path d="M24.1784 15.2348H20.1592C19.9826 14.8514 19.9036 14.4106 19.885 13.7876L19.8246 12.1584C19.7642 10.5292 19.0254 10.2848 17.9335 10.2848H15.903V15.2348H12V0.902344H18.8303C22.6172 0.902344 24.0018 2.91492 24.0018 5.14792C24.0018 6.53756 23.3188 7.82657 21.8365 8.5118C23.4582 9.13474 23.6905 10.3423 23.7509 11.8709L23.8299 13.7828C23.8485 14.3866 23.9832 14.8898 24.1784 15.2348ZM18.2448 7.34259C19.3972 7.34259 19.9826 6.73882 19.9826 5.6942C19.9826 4.66874 19.3972 4.04101 18.2448 4.04101H15.903V7.34259H18.2448Z" fill="white"/>
<path d="M29.006 4.48665V6.37943H35.446V9.71935H29.006V11.6505H36.0733V15.2348H25.103V0.902344H36.0733V4.48665H29.006Z" fill="white"/>
<path d="M50.7698 0.902344L45.6773 9.71935V15.2348H41.7743V9.71935L36.6028 0.902344H40.9937L41.8904 2.51241C42.5363 3.68162 43.1775 4.84604 43.8048 6.01525C44.3902 4.82687 45.0361 3.60016 45.6401 2.49324L46.4997 0.902344H50.7698Z" fill="white"/>
<path d="M49.8591 10.5242H53.6088C53.646 12.2157 54.7193 12.4984 56.2248 12.4984C57.5536 12.4984 58.1763 12.0144 58.1763 11.2094C58.1763 10.3852 57.6884 10.1025 55.9878 9.81975L54.8959 9.63766C51.7549 9.11535 50.0729 7.60591 50.0729 5.00873C50.0729 2.53134 51.871 0.581055 55.7741 0.581055C59.4447 0.581055 61.5496 2.17195 61.7076 5.31061H58.0369C57.9765 4.18453 57.3538 3.63826 55.8298 3.63826C54.5985 3.63826 54.0549 4.07911 54.0549 4.82664C54.0549 5.69396 54.7007 5.99585 56.0854 6.23544L57.2377 6.4367C60.6342 7.02131 62.1954 8.34865 62.1954 10.9075C62.1954 14.1085 59.6957 15.5556 56.0668 15.5556C51.871 15.5556 49.8591 13.4616 49.8591 10.5242Z" fill="white"/>
<path d="M62.2976 8.06584C62.2976 3.49441 65.2667 0.576172 69.5972 0.576172C73.9091 0.576172 76.8968 3.49441 76.8968 8.06584C76.8968 12.6373 73.9091 15.5555 69.5972 15.5555C65.2667 15.5555 62.2976 12.6373 62.2976 8.06584ZM72.8358 8.06584C72.8358 5.53095 71.5487 4.05985 69.5972 4.05985C67.6457 4.05985 66.3586 5.53095 66.3586 8.06584C66.3586 10.6199 67.6457 12.0718 69.5972 12.0718C71.5487 12.0718 72.8358 10.6247 72.8358 8.06584Z" fill="white"/>
<path d="M81.706 4.48674V6.36035H87.9508V9.7434H81.706V15.2397H77.803V0.907227H88.383V4.49153H81.706V4.48674Z" fill="white"/>
<path d="M101.003 4.48665H96.9045V15.2348H93.0015V4.48665H88.9033V0.902344H101.003V4.48665Z" fill="white"/>
</svg>
